<svg width="11" height="7" viewBox="0 0 11 7" fill="none" xmlns="http://www.w3.org/2000/svg">
<path d="M5.25 6.78125H5.21875C5.28125 6.84375 5.375 6.875 5.5 6.875C5.59375 6.875 5.6875 6.84375 5.78125 6.78125L10.4062 2.1875C10.4688 2.125 10.5 2.03125 10.5 1.9375C10.5 1.84375 10.4688 1.75 10.4062 1.65625L9.78125 1.03125C9.6875 0.96875 9.59375 0.9375 9.5 0.9375C9.375 0.9375 9.3125 0.96875 9.25 1.03125L5.5 4.75L1.75 1.03125C1.6875 0.96875 1.59375 0.9375 1.5 0.9375C1.375 0.9375 1.28125 0.96875 1.21875 1.03125L0.59375 1.65625C0.53125 1.75 0.5 1.84375 0.5 1.9375C0.5 2.03125 0.53125 2.125 0.625 2.1875L5.25 6.78125Z" fill="#3B83E6"/>
</svg>
